<?xml version="1.0" encoding="utf-8"?>
<!-- Generator: Adobe Illustrator 26.0.1, SVG Export Plug-In . SVG Version: 6.00 Build 0)  -->
<svg version="1.1" id="logo-45" xmlns="http://www.w3.org/2000/svg" xmlns:xlink="http://www.w3.org/1999/xlink" x="0px" y="0px"
	 viewBox="0 0 148.9 31" style="enable-background:new 0 0 148.9 31;" xml:space="preserve">
<style type="text/css">
	.st0{fill:url(#SVGID_1_);}
	.st1{fill:#FBCF8E;}
	.st2{fill:url(#SVGID_00000129890914401411400570000011618044804758311301_);}
	.st3{fill:#73E5E2;}
	.st4{fill:#394F87;}
</style>
<linearGradient id="SVGID_1_" gradientUnits="userSpaceOnUse" x1="38.1526" y1="26.2437" x2="7.6299" y2="26.2437" gradientTransform="matrix(1 0 0 -1 0 34)">
	<stop  offset="0" style="stop-color:#73E5E2"/>
	<stop  offset="1" style="stop-color:#394F87"/>
</linearGradient>
<path class="st0" d="M38.2,15.5c0-4.1-1.6-8.1-4.5-11S26.9,0,22.9,0c-4,0-7.9,1.6-10.8,4.5c-2.9,2.9-4.5,6.9-4.5,11h4.8
	c1.6,0,2.8-1.3,3.4-2.8c0.4-1,1-1.9,1.7-2.6c1.4-1.5,3.4-2.3,5.4-2.3s4,0.8,5.4,2.3c1.4,1.5,2.2,3.4,2.2,5.5H38.2z"/>
<path class="st1" d="M29.4,21.4c0.8-1.9,1.2-3.9,1.2-5.9h7.6c0,8.6-6.8,15.5-15.3,15.5c-1.3,0-2.6-0.2-3.8-0.5
	c0.7-0.2,1.4-0.4,2-0.7c1.9-0.8,3.5-1.9,5-3.4C27.5,25,28.6,23.3,29.4,21.4z"/>
<linearGradient id="SVGID_00000066479290574473645000000016344601757719195781_" gradientUnits="userSpaceOnUse" x1="0" y1="10.7311" x2="30.5228" y2="10.7311" gradientTransform="matrix(1 0 0 -1 0 34)">
	<stop  offset="0" style="stop-color:#FBDC8E"/>
	<stop  offset="1" style="stop-color:#FB958E"/>
</linearGradient>
<path style="fill:url(#SVGID_00000066479290574473645000000016344601757719195781_);" d="M0,15.5c0,2,0.4,4.1,1.2,5.9
	c0.8,1.9,1.9,3.6,3.3,5c1.4,1.4,3.1,2.6,5,3.4c1.9,0.8,3.8,1.2,5.8,1.2c2,0,4-0.4,5.8-1.2c1.9-0.8,3.5-1.9,5-3.4
	c1.4-1.4,2.5-3.2,3.3-5c0.8-1.9,1.2-3.9,1.2-5.9h-4.8c-1.6,0-2.8,1.3-3.4,2.8c0,0,0,0.1-0.1,0.1c-0.4,0.9-0.9,1.8-1.7,2.5
	c-0.7,0.7-1.5,1.3-2.5,1.7c-0.9,0.4-1.9,0.6-2.9,0.6c-1,0-2-0.2-2.9-0.6c-0.9-0.4-1.8-1-2.5-1.7c-0.7-0.7-1.3-1.6-1.7-2.5
	c-0.4-0.9-0.6-1.9-0.6-3H0z"/>
<path class="st3" d="M0,15.5C0,6.9,6.8,0,15.3,0c1.3,0,2.6,0.2,3.8,0.5c-2.6,0.7-5,2.1-7,4.1c-2.9,2.9-4.5,6.9-4.5,11H0z"/>
<g>
	<path class="st4" d="M50.3,20.5l-2.9-9.8v9.8h-2.3v-12h4.3l2.1,7.2l2.2-7.2h4.3v12h-2.8v-9.8l-3,9.8H50.3z"/>
	<path class="st4" d="M67,11.6l-2.7,8.5c-0.3,0.9-0.6,1.6-0.8,2.1c-0.2,0.4-0.5,0.8-0.9,1c-0.4,0.3-1,0.4-1.7,0.4
		c-0.4,0-0.8,0-1.2-0.1v-2c0.5,0.1,0.9,0.1,1.3,0.1c0.5,0,0.8-0.1,1-0.3c0.2-0.2,0.3-0.5,0.4-0.8l-3.2-8.9h2.7l1.7,5.3l1.6-5.3H67z"
		/>
	<path class="st4" d="M82.1,13l-2.9,0.2c0-1.7-0.7-2.5-1.9-2.5c-1.4,0-2.2,1.3-2.2,3.9c0,1.5,0.2,2.5,0.6,3.1
		c0.4,0.5,0.9,0.8,1.6,0.8c1.1,0,1.8-0.8,2.1-2.3l2.7,0.2c-0.2,1.4-0.7,2.5-1.6,3.3c-0.9,0.7-2,1.1-3.2,1.1c-1.6,0-2.8-0.5-3.8-1.6
		s-1.5-2.6-1.5-4.5c0-1.8,0.5-3.3,1.4-4.4s2.2-1.7,3.9-1.7C80.2,8.3,81.8,9.9,82.1,13z"/>
	<path class="st4" d="M87.2,11.5c1.3,0,2.4,0.4,3.1,1.3s1.1,2,1.1,3.3c0,1.3-0.4,2.4-1.2,3.3s-1.8,1.3-3.1,1.3c-1.2,0-2.2-0.4-3-1.3
		s-1.1-2-1.1-3.3c0-0.9,0.2-1.7,0.5-2.4s0.8-1.2,1.4-1.6C85.6,11.7,86.3,11.5,87.2,11.5z M87.3,13.2c-0.5,0-0.9,0.2-1.1,0.6
		s-0.4,1.1-0.4,2.3c0,1,0.1,1.8,0.4,2.3c0.2,0.5,0.6,0.7,1.1,0.7c0.4,0,0.8-0.2,1.1-0.6c0.3-0.4,0.4-1.1,0.4-2.2
		c0-1.2-0.1-2-0.4-2.4S87.8,13.2,87.3,13.2z"/>
	<path class="st4" d="M105.6,20.5H103v-4.9c0-0.7,0-1.1-0.1-1.3s-0.1-0.4-0.3-0.5s-0.4-0.2-0.7-0.2c-0.3,0-0.6,0.1-0.9,0.3
		s-0.4,0.8-0.4,1.8v4.9H98v-4.9c0-0.7,0-1.2-0.1-1.4s-0.2-0.4-0.4-0.5s-0.4-0.2-0.7-0.2c-0.4,0-0.8,0.1-1,0.4s-0.3,0.8-0.3,1.6v4.9
		h-2.5v-8.9h2.4V13c0.4-1,1.2-1.5,2.5-1.5c1.1,0,1.9,0.5,2.4,1.5c0.5-1,1.3-1.5,2.5-1.5c0.6,0,1.1,0.1,1.5,0.4s0.7,0.6,0.9,0.9
		s0.3,1.1,0.3,2V20.5z"/>
	<path class="st4" d="M107.7,23.5V11.6h2.4v1.3c0.4-1,1.2-1.5,2.3-1.5c0.9,0,1.7,0.4,2.3,1.2c0.6,0.8,0.9,1.9,0.9,3.4
		c0,1.6-0.3,2.7-0.9,3.5s-1.4,1.2-2.4,1.2c-1,0-1.7-0.4-2.1-1.2v4H107.7z M110.2,16.6c0,0.6,0,1.1,0.1,1.3s0.2,0.5,0.5,0.6
		s0.5,0.3,0.8,0.3c0.4,0,0.7-0.2,0.9-0.5s0.4-1.2,0.4-2.4c0-1.8-0.5-2.6-1.4-2.6c-0.3,0-0.7,0.2-0.9,0.5c-0.3,0.3-0.4,0.8-0.4,1.6
		V16.6z"/>
	<path class="st4" d="M124.8,20.5h-2.5c-0.1-0.4-0.1-0.8-0.1-1.4c-0.4,0.6-0.9,1.1-1.3,1.3c-0.4,0.2-0.9,0.3-1.5,0.3
		c-0.8,0-1.5-0.2-2-0.7c-0.5-0.5-0.8-1.1-0.8-1.8c0-0.6,0.1-1.1,0.4-1.5c0.3-0.5,0.8-0.8,1.4-1.1s1.8-0.5,3.6-0.6v-0.5
		c0-0.9-0.4-1.3-1.3-1.3c-0.9,0-1.4,0.4-1.5,1.3l-2.4-0.2c0.2-1,0.6-1.7,1.4-2.1s1.7-0.6,2.7-0.6c0.6,0,1.2,0.1,1.7,0.2
		c0.5,0.1,0.9,0.4,1.2,0.6s0.5,0.6,0.6,0.9s0.2,0.9,0.2,1.6v4C124.7,19.6,124.7,20.2,124.8,20.5z M122.1,16.3
		c-1.8,0.2-2.7,0.7-2.7,1.7c0,0.3,0.1,0.6,0.3,0.8c0.2,0.2,0.5,0.3,0.8,0.3c0.5,0,0.8-0.2,1.1-0.6c0.3-0.4,0.5-0.9,0.5-1.4V16.3z"/>
	<path class="st4" d="M134.4,20.5h-2.6v-5c0-0.6,0-1-0.1-1.2c0-0.2-0.2-0.4-0.3-0.6s-0.4-0.2-0.7-0.2c-0.9,0-1.4,0.7-1.4,2v5h-2.6
		v-8.9h2.4v1.5c0.4-0.7,0.8-1.2,1.2-1.4c0.4-0.2,0.8-0.3,1.3-0.3c0.8,0,1.5,0.2,2,0.7c0.5,0.5,0.8,1.3,0.8,2.7V20.5z"/>
	<path class="st4" d="M143.1,11.6l-2.7,8.5c-0.3,0.9-0.6,1.6-0.8,2.1c-0.2,0.4-0.5,0.8-0.9,1c-0.4,0.3-1,0.4-1.7,0.4
		c-0.4,0-0.8,0-1.2-0.1v-2c0.5,0.1,0.9,0.1,1.3,0.1c0.5,0,0.8-0.1,1-0.3c0.2-0.2,0.3-0.5,0.4-0.8l-3.2-8.9h2.7l1.7,5.3l1.6-5.3
		H143.1z"/>
</g>
</svg>
